<svg xmlns="http://www.w3.org/2000/svg" viewBox="0 0 100 125" x="0px" y="0px"><title>Straight_Line</title><path d="M40,62.5A2.5,2.5,0,0,1,37.5,60V40a2.5,2.5,0,0,1,5,0V60A2.5,2.5,0,0,1,40,62.5Z"/><path d="M80,62.5A2.5,2.5,0,0,1,77.5,60V40a2.5,2.5,0,0,1,5,0V60A2.5,2.5,0,0,1,80,62.5Z"/><path d="M70,72.5A2.5,2.5,0,0,1,67.5,70V30a2.5,2.5,0,0,1,5,0V70A2.5,2.5,0,0,1,70,72.5Z"/><path d="M60,82.5A2.5,2.5,0,0,1,57.5,80V20a2.5,2.5,0,0,1,5,0V80A2.5,2.5,0,0,1,60,82.5Z"/><path d="M50,72.5A2.5,2.5,0,0,1,47.5,70V30a2.5,2.5,0,0,1,5,0V70A2.5,2.5,0,0,1,50,72.5Z"/><path d="M30,72.5A2.5,2.5,0,0,1,27.5,70V30a2.5,2.5,0,0,1,5,0V70A2.5,2.5,0,0,1,30,72.5Z"/><path d="M20,62.5A2.5,2.5,0,0,1,17.5,60V40a2.5,2.5,0,0,1,5,0V60A2.5,2.5,0,0,1,20,62.5Z"/><text x="0" y="115" fill="#000000" font-size="5px" font-weight="bold" font-family="'Helvetica Neue', Helvetica, Arial-Unicode, Arial, Sans-serif">Created by Bohdan Burmich</text><text x="0" y="120" fill="#000000" font-size="5px" font-weight="bold" font-family="'Helvetica Neue', Helvetica, Arial-Unicode, Arial, Sans-serif">from the Noun Project</text></svg>